<?xml version="1.0" encoding="utf-8"?>
<!-- Generator: Adobe Illustrator 27.2.0, SVG Export Plug-In . SVG Version: 6.00 Build 0)  -->
<svg version="1.1" id="Layer_1" xmlns="http://www.w3.org/2000/svg" xmlns:xlink="http://www.w3.org/1999/xlink" x="0px" y="0px"
	 viewBox="0 0 35 35" style="enable-background:new 0 0 35 35;" xml:space="preserve">
<style type="text/css">
	.st0{fill-rule:evenodd;clip-rule:evenodd;}
</style>
<path class="st0" d="M11.9,4.5c-0.1,0-0.2,0-0.3,0C9.7,4.7,6.8,5.7,5.1,6.7C4.9,6.7,4.8,6.8,4.8,6.9C4,7.7,3.4,9.1,2.9,10.4
	c-0.5,1.3-1,2.7-1.2,3.7c-0.8,3.2-1.3,7.1-1.3,10.8c0,0.2,0,0.4,0.1,0.5c0.7,1.3,2.2,2.5,3.7,3.4c1.5,0.9,3.3,1.6,4.7,1.7
	c0.3,0,0.7-0.1,0.9-0.3c0.4-0.4,1-1.3,1.4-2c0.2-0.3,0.4-0.6,0.5-0.9c1.5,0.3,3.4,0.4,5.8,0.4s4.3-0.2,5.8-0.4
	c0.2,0.2,0.3,0.5,0.5,0.9c0.5,0.7,1.1,1.6,1.4,2c0.3,0.3,0.6,0.4,0.9,0.3c1.4-0.1,3.2-0.8,4.7-1.7c1.5-0.9,3-2.1,3.6-3.4
	c0.1-0.2,0.1-0.3,0.1-0.5c0-3.7-0.5-7.6-1.3-10.8c-0.3-1-0.7-2.4-1.2-3.7c-0.5-1.3-1.2-2.6-1.9-3.4c-0.1-0.1-0.2-0.2-0.3-0.2
	c-1.7-0.9-4.7-2-6.6-2.2c-0.1,0-0.2,0-0.3,0c-0.5,0.1-0.9,0.3-1.2,0.5c-0.3,0.2-0.6,0.5-0.9,0.8c-0.4,0.4-0.7,1-1,1.5
	c-0.8-0.1-1.6-0.1-2.5-0.1s-1.8,0-2.6,0.1c-0.2-0.5-0.6-1-0.9-1.5c-0.3-0.3-0.5-0.6-0.9-0.8C12.8,4.8,12.4,4.6,11.9,4.5z M25.6,26.8
	c0,0.1,0.1,0.2,0.1,0.2c0.3,0.5,0.6,0.9,0.8,1.2c0.9-0.2,2.1-0.7,3.2-1.4c1.2-0.7,2.2-1.6,2.7-2.3c-0.1-3.5-0.5-7-1.2-10
	c-0.2-0.9-0.6-2.2-1.1-3.4c-0.5-1.1-0.9-2.1-1.4-2.7c-1.5-0.8-3.9-1.6-5.4-1.8c0,0-0.1,0-0.1,0.1c-0.2,0.1-0.3,0.3-0.5,0.5
	c-0.1,0.1-0.2,0.2-0.3,0.3c0.7,0.1,1.3,0.3,1.9,0.5c1.6,0.5,2.7,1.1,3.2,1.9c0.4,0.5,0.3,1.2-0.2,1.5c-0.5,0.4-1.2,0.3-1.5-0.2
	c-0.1-0.2-0.7-0.7-2.2-1.1c-1.4-0.4-3.4-0.8-6.1-0.8s-4.8,0.3-6.1,0.8c-1.4,0.4-2,0.9-2.2,1.1c-0.4,0.5-1.1,0.6-1.5,0.2
	c-0.5-0.4-0.6-1.1-0.2-1.5C8,9.2,9.1,8.6,10.7,8.1c0.5-0.2,1.2-0.3,1.9-0.4c-0.1-0.1-0.2-0.2-0.3-0.3c-0.2-0.2-0.4-0.4-0.5-0.5
	c0,0-0.1-0.1-0.1-0.1c-1.5,0.2-3.9,1-5.4,1.8C5.9,9.1,5.4,10,4.9,11.2c-0.5,1.2-0.9,2.5-1.1,3.4c-0.7,2.9-1.2,6.5-1.2,10
	C3,25.3,4,26.1,5.3,26.9c1.1,0.7,2.3,1.1,3.2,1.4C8.7,27.9,9,27.5,9.3,27c0.1-0.1,0.1-0.2,0.2-0.2c-1.8-0.6-2.8-1.5-3.4-2.5
	c-0.3-0.5-0.2-1.2,0.3-1.5c0.5-0.3,1.2-0.2,1.5,0.3c0.6,0.9,2.2,2.5,9.6,2.5s9-1.6,9.6-2.5c0.3-0.5,1-0.6,1.5-0.3
	c0.5,0.3,0.6,1,0.3,1.5C28.3,25.2,27.4,26.1,25.6,26.8z M9.7,16.4c0.5-0.6,1.3-0.9,2.1-0.9c0.8,0,1.6,0.3,2.1,0.9
	c0.5,0.6,0.9,1.4,0.9,2.3c0,0.8-0.3,1.7-0.9,2.3c-0.5,0.6-1.3,0.9-2.1,0.9c-0.8,0-1.6-0.3-2.1-0.9c-0.5-0.6-0.9-1.4-0.9-2.3
	C8.8,17.8,9.1,17,9.7,16.4z M23.2,15.4c-0.8,0-1.6,0.3-2.1,0.9c-0.5,0.6-0.9,1.4-0.9,2.3c0,0.8,0.3,1.7,0.9,2.3
	c0.5,0.6,1.3,0.9,2.1,0.9c0.8,0,1.5-0.3,2.1-0.9c0.5-0.6,0.9-1.4,0.9-2.3c0-0.8-0.3-1.7-0.9-2.3C24.8,15.8,24,15.4,23.2,15.4z"/>
</svg>
