<?xml version="1.0" encoding="utf-8"?>
<!-- Generator: Adobe Illustrator 27.2.0, SVG Export Plug-In . SVG Version: 6.00 Build 0)  -->
<svg version="1.1" id="Layer_1" xmlns="http://www.w3.org/2000/svg" xmlns:xlink="http://www.w3.org/1999/xlink" x="0px" y="0px"
	 viewBox="0 0 35 35" style="enable-background:new 0 0 35 35;" xml:space="preserve">
<style type="text/css">
	.st0{fill-rule:evenodd;clip-rule:evenodd;}
</style>
<path class="st0" d="M11.8,4.9c0-1.3,1-2.3,2.3-2.3h6.9c1.3,0,2.3,1,2.3,2.3v2.3h9.2c1.3,0,2.3,1,2.3,2.3v6.9c0,2-0.9,3.9-2.3,5.1
	v7.5c0,1.9-1.5,3.4-3.4,3.4H6.1c-1.9,0-3.4-1.5-3.4-3.4v-7.5c-1.4-1.3-2.3-3.1-2.3-5.1V9.5c0-1.3,1-2.3,2.3-2.3h9.2V4.9z M20.9,4.9
	v2.3h-6.9V4.9H20.9z M2.6,9.5h9.2h1.1h9.2h1.1h9.2v6.9c0,1.5-0.7,2.8-1.8,3.7c-0.8,0.6-1.7,0.9-2.7,0.9h-9.2v-1.1
	c0-0.6-0.5-1.1-1.1-1.1s-1.1,0.5-1.1,1.1v1.1H7.2c-1,0-2-0.3-2.7-0.9c-1.1-0.8-1.8-2.2-1.8-3.7V9.5z M16.4,23.2H7.2
	c-0.8,0-1.6-0.1-2.3-0.4v6.1c0,0.6,0.5,1.1,1.1,1.1h22.9c0.6,0,1.1-0.5,1.1-1.1v-6.1c-0.7,0.3-1.5,0.4-2.3,0.4h-9.2v1.1
	c0,0.6-0.5,1.1-1.1,1.1s-1.1-0.5-1.1-1.1V23.2z"/>
</svg>
