<?xml version="1.0" encoding="utf-8"?>
<!-- Generator: Adobe Illustrator 27.2.0, SVG Export Plug-In . SVG Version: 6.00 Build 0)  -->
<svg version="1.1" id="Layer_1" xmlns="http://www.w3.org/2000/svg" xmlns:xlink="http://www.w3.org/1999/xlink" x="0px" y="0px"
	 viewBox="0 0 35 35" style="enable-background:new 0 0 35 35;" xml:space="preserve">
<style type="text/css">
	.st0{fill-rule:evenodd;clip-rule:evenodd;}
</style>
<path class="st0" d="M3,0.4C1.6,0.4,0.4,1.5,0.4,3v29c0,1.5,1.2,2.6,2.6,2.6h29c1.4,0,2.6-1.2,2.6-2.6V3c0-1.5-1.2-2.6-2.6-2.6H3z
	 M5.8,13.5h5v15.8h-5V13.5z M11.1,8.3c0,1.6-1.3,2.8-2.8,2.8S5.5,9.9,5.5,8.3c0-1.6,1.3-2.8,2.8-2.8S11.1,6.7,11.1,8.3z M29.4,19.8
	c0-4.8-3.1-6.6-6.1-6.6c-1,0-2,0.2-2.9,0.6c-0.7,0.3-1.4,1.1-1.9,2.5h-0.2v-2.7h-4.7v15.8h5V21c-0.1-0.9,0.2-2,0.8-2.6
	c0.6-0.7,1.4-0.8,2-0.9h0.2c1.6,0,2.8,1,2.8,3.5v8.5h5L29.4,19.8z"/>
</svg>
